<?xml version="1.0" standalone="no"?>
<!DOCTYPE svg PUBLIC "-//W3C//DTD SVG 20010904//EN"
 "http://www.w3.org/TR/2001/REC-SVG-20010904/DTD/svg10.dtd">
<svg version="1.0" xmlns="http://www.w3.org/2000/svg"
 width="260.000000pt" height="260.000000pt" viewBox="0 0 260.000000 260.000000"
 preserveAspectRatio="xMidYMid meet">
<metadata>
Created by potrace 1.14, written by Peter Selinger 2001-2017
</metadata>
<g transform="translate(0.000000,260.000000) scale(0.100000,-0.100000)"
fill="#000000" stroke="none">
<path d="M2 1324 c-1 -1097 1 -1274 14 -1274 8 0 14 5 14 12 0 6 3 8 6 5 4 -4
1 -13 -6 -22 -18 -21 -7 -19 20 5 13 11 28 20 34 19 6 0 6 -3 -2 -6 -7 -2 -17
-14 -24 -26 -11 -21 -10 -21 9 -5 25 23 34 23 27 0 -2 -9 1 -7 7 5 7 13 16 23
21 23 5 0 7 -4 4 -9 -3 -5 0 -14 8 -20 15 -13 35 5 41 36 2 10 4 18 5 18 1 0
3 10 4 22 2 13 -1 23 -6 23 -5 0 -7 4 -3 10 9 14 13 110 4 110 -4 0 -4 14 1
30 5 18 5 30 0 30 -6 0 -5 12 1 27 7 18 7 29 0 31 -6 2 -6 14 -1 33 5 17 5 29
0 29 -6 0 -5 12 1 27 7 19 7 29 0 31 -8 3 -8 10 -1 23 8 13 7 19 0 19 -6 0 -9
4 -5 9 10 17 13 71 3 71 -5 0 -6 4 -3 10 9 15 12 90 3 90 -4 0 -4 11 1 23 5
13 5 30 1 37 -5 8 -6 18 -3 24 9 13 9 76 1 76 -4 0 -4 11 1 23 5 13 5 30 1 37
-5 8 -6 19 -3 24 10 15 10 56 0 56 -4 0 -6 4 -2 9 10 17 13 71 3 71 -5 0 -7 4
-3 10 9 14 13 110 4 110 -4 0 -4 14 1 30 5 18 5 30 0 30 -6 0 -6 9 -1 23 5 13
5 30 0 39 -6 10 -6 19 0 23 6 3 7 15 2 28 -6 14 -5 30 2 42 7 14 7 20 -2 23
-9 3 -9 7 0 19 10 11 10 16 1 22 -9 6 -7 14 8 34 13 16 16 28 10 32 -6 4 -9 1
-8 -6 2 -6 -3 -14 -11 -17 -9 -3 -11 0 -6 8 4 7 8 26 7 41 0 19 4 29 14 29 8
0 14 -5 14 -11 0 -5 -4 -8 -9 -5 -5 4 -1 -12 10 -33 10 -22 19 -54 19 -71 0
-21 4 -29 12 -24 7 5 8 3 2 -7 -12 -20 -14 -40 -3 -33 5 3 9 -7 9 -21 0 -16 4
-24 11 -19 8 4 8 0 0 -15 -9 -16 -9 -21 0 -21 7 0 9 -3 6 -7 -4 -3 -1 -13 6
-21 9 -13 9 -14 0 -8 -9 5 -11 2 -7 -8 3 -9 9 -14 13 -11 4 2 8 -2 8 -10 0 -8
-5 -15 -11 -15 -6 0 -5 -4 3 -9 9 -6 12 -19 9 -36 -4 -21 -1 -28 16 -35 20 -8
20 -9 1 -10 -17 0 -17 -2 -5 -10 8 -5 11 -10 6 -10 -5 0 -3 -7 4 -15 10 -12
10 -15 -1 -15 -9 -1 -8 -5 5 -15 11 -8 15 -15 10 -15 -6 0 -11 -7 -11 -15 0
-8 6 -15 13 -15 8 0 11 -10 7 -31 -3 -21 -1 -29 6 -24 6 3 11 1 11 -4 0 -6 -6
-11 -12 -11 -10 0 -9 -3 1 -9 7 -5 14 -20 14 -35 -1 -14 3 -24 7 -21 4 2 7
-10 8 -27 0 -17 7 -35 14 -39 10 -7 10 -9 -2 -9 -11 0 -12 -2 -3 -8 7 -5 14
-27 15 -50 1 -22 5 -39 10 -36 4 3 8 0 8 -5 0 -6 -6 -11 -12 -11 -7 0 -5 -5 6
-11 15 -9 16 -13 5 -20 -11 -7 -11 -9 -1 -9 7 0 10 -4 7 -10 -3 -5 0 -10 7
-10 9 0 9 -3 -2 -10 -8 -5 -10 -10 -4 -10 7 0 15 -7 18 -16 4 -10 2 -13 -6 -8
-8 5 -9 2 -5 -10 4 -10 7 -20 7 -22 0 -3 5 -2 11 2 8 5 8 1 0 -14 -7 -14 -8
-23 -1 -27 6 -4 8 -10 5 -15 -8 -13 6 -41 18 -33 5 3 7 1 3 -5 -3 -5 -3 -12 1
-15 5 -2 2 -2 -5 -1 -14 4 -17 -13 -3 -18 5 -1 11 -14 13 -28 1 -14 8 -28 13
-32 6 -5 5 -8 -3 -8 -7 0 -10 -5 -7 -10 4 -6 10 -8 15 -5 4 3 6 -5 2 -17 -4
-16 -2 -19 9 -13 12 8 12 6 0 -8 -11 -14 -11 -17 0 -17 11 0 11 -2 -1 -10 -9
-6 -10 -10 -3 -10 6 0 10 -9 8 -20 -2 -11 3 -27 11 -35 12 -11 12 -15 2 -15
-10 0 -10 -2 -1 -8 6 -4 11 -22 11 -40 -1 -18 7 -41 18 -54 10 -12 13 -18 7
-14 -16 9 -17 -6 -1 -22 9 -9 9 -12 -2 -12 -11 -1 -10 -5 4 -15 15 -11 16 -15
5 -16 -8 0 -3 -5 11 -11 14 -6 29 -10 33 -9 5 1 6 -3 2 -9 -5 -8 -11 -8 -20 0
-9 8 -15 8 -20 0 -7 -11 -5 -12 23 -14 9 -1 23 -5 29 -9 9 -6 11 -3 7 7 -4 11
0 16 11 16 9 0 14 -4 11 -9 -3 -5 0 -11 8 -14 9 -4 12 2 10 19 -2 19 1 23 10
15 9 -7 16 -7 23 0 8 8 13 7 18 -2 5 -7 4 -10 -3 -5 -6 3 -13 2 -17 -4 -4 -6
-11 -7 -17 -4 -7 4 -8 2 -4 -5 6 -9 11 -9 23 1 9 7 19 13 22 13 3 0 5 6 5 13
-1 6 3 12 10 12 6 0 4 5 -4 10 -8 5 -10 10 -4 10 11 0 11 63 -1 93 -5 10 -3
17 5 17 9 0 9 4 -1 17 -10 11 -10 14 -1 9 6 -4 12 -2 12 3 0 6 -6 11 -12 11
-9 0 -9 3 -3 8 12 8 11 66 0 95 -5 11 -3 17 5 17 9 0 9 4 -1 17 -10 11 -10 14
-1 9 6 -4 12 -2 12 3 0 6 -6 11 -12 11 -9 0 -9 3 -3 8 12 8 11 66 0 95 -5 11
-3 17 5 17 9 0 9 4 -1 17 -10 11 -10 14 -1 9 6 -4 12 -2 12 3 0 6 -6 11 -12
11 -9 0 -9 3 -3 8 6 4 9 25 8 47 -5 56 -5 58 0 80 2 11 0 30 -4 43 -6 14 -5
22 2 22 7 0 6 6 -2 17 -10 11 -10 14 -1 9 18 -11 14 5 -5 20 -17 13 -17 14 1
8 16 -6 17 -4 7 14 -7 13 -8 22 -2 22 10 0 9 19 -2 38 -5 6 -4 12 0 12 5 0 9
9 9 19 0 16 -3 18 -16 8 -13 -11 -13 -10 -1 6 20 25 21 67 1 68 -13 0 -13 1 0
7 17 8 25 52 9 52 -5 0 -7 -5 -3 -12 5 -7 3 -8 -6 -3 -10 6 -9 11 5 22 14 9
15 13 4 13 -12 0 -12 2 0 9 11 7 10 11 -5 20 -14 8 -15 10 -4 11 12 0 15 12
14 49 -1 27 -5 54 -8 60 -4 6 -2 11 5 11 8 0 7 5 -2 17 -10 11 -10 14 -1 9 18
-11 14 5 -5 20 -17 13 -17 14 1 8 16 -6 17 -4 7 14 -7 13 -8 22 -2 22 10 0 9
19 -2 38 -5 6 -4 12 0 12 5 0 9 9 9 19 0 16 -3 18 -16 8 -13 -11 -13 -10 -1 6
20 25 21 67 1 68 -13 0 -13 1 0 7 17 8 25 52 9 52 -5 0 -7 -5 -3 -12 5 -7 3
-8 -6 -3 -10 6 -9 11 5 22 14 9 15 13 4 13 -12 0 -12 2 0 9 11 7 10 11 -5 20
-14 8 -15 10 -4 11 12 0 15 12 14 49 -1 27 -5 54 -8 60 -4 6 -2 11 5 11 8 0 7
5 -2 17 -10 11 -10 14 -1 9 18 -11 14 5 -5 20 -17 13 -17 14 1 8 16 -6 17 -4
7 14 -7 13 -8 22 -2 22 10 0 9 19 -2 38 -5 6 -4 12 0 12 5 0 9 9 9 19 0 16 -3
18 -16 8 -11 -8 -10 -6 2 7 12 14 14 25 7 42 -6 16 -5 24 2 24 7 0 6 6 -2 17
-10 11 -10 14 -1 9 6 -4 12 -2 12 3 0 6 -6 11 -12 11 -9 0 -9 3 -3 8 12 8 11
66 0 95 -5 11 -3 17 5 17 9 0 9 4 -1 17 -10 11 -10 14 -1 9 6 -4 12 -2 12 3 0
6 -6 11 -12 11 -9 0 -9 3 -3 8 12 8 11 66 0 95 -5 11 -3 17 5 17 9 0 9 4 -1
17 -10 11 -10 14 -1 9 6 -4 12 -2 12 3 0 6 -6 11 -12 11 -9 0 -9 3 -3 8 12 8
11 66 0 95 -5 11 -3 17 5 17 9 0 9 4 -1 17 -10 11 -10 14 -1 9 6 -4 12 -2 12
3 0 6 -6 11 -12 11 -10 0 -9 3 1 9 11 7 10 11 -5 20 -14 8 -15 10 -4 11 9 0
15 9 15 24 0 13 -3 22 -8 19 -4 -2 -10 3 -13 12 -5 13 -21 16 -92 14 -75 -2
-83 -3 -67 -15 14 -10 15 -14 4 -14 -11 0 -14 -13 -13 -55 1 -31 5 -62 8 -71
3 -8 2 -12 -4 -9 -14 9 -12 -8 3 -24 9 -11 9 -13 0 -7 -17 9 -17 -6 -1 -23 11
-12 10 -13 -6 -7 -15 5 -16 4 -8 -7 6 -7 10 -26 10 -43 -1 -17 3 -37 7 -44 5
-9 4 -11 -3 -6 -16 10 -15 -7 1 -23 10 -11 10 -13 0 -7 -17 9 -17 -6 0 -23 10
-12 9 -13 -7 -7 -15 5 -16 4 -8 -7 6 -7 10 -26 10 -43 -1 -17 3 -37 7 -44 5
-9 4 -11 -3 -6 -16 10 -15 -7 1 -23 9 -11 9 -13 0 -7 -17 9 -17 -6 0 -23 10
-12 9 -13 -7 -7 -15 5 -17 4 -7 -8 7 -8 10 -33 7 -60 -2 -25 -1 -44 4 -41 4 2
5 -7 2 -20 -2 -14 -8 -22 -13 -19 -5 3 -9 0 -9 -5 0 -6 7 -11 15 -11 8 0 15
-5 15 -11 0 -5 -4 -7 -10 -4 -14 9 -12 -8 3 -24 10 -11 10 -13 0 -7 -17 9 -17
-6 0 -23 10 -12 9 -13 -7 -7 -15 5 -17 4 -7 -8 7 -8 10 -33 7 -60 -2 -25 -1
-44 4 -41 4 2 5 -7 2 -20 -2 -14 -8 -22 -13 -19 -5 3 -9 0 -9 -5 0 -6 8 -11
18 -12 11 0 12 -2 4 -6 -10 -4 -10 -8 0 -21 11 -13 10 -15 -4 -9 -12 4 -15 2
-11 -8 3 -8 8 -13 12 -11 4 3 7 -4 7 -14 0 -12 -5 -16 -16 -12 -11 4 -10 -1 5
-18 19 -23 19 -23 1 -16 -20 7 -20 7 0 -15 10 -12 14 -19 8 -16 -7 4 -11 -3
-11 -18 -1 -14 3 -23 7 -20 4 2 5 -7 2 -20 -2 -14 -8 -22 -13 -19 -5 3 -9 0
-9 -5 0 -6 7 -11 15 -11 8 0 15 -5 15 -11 0 -5 -4 -7 -10 -4 -14 9 -12 -8 3
-24 10 -11 10 -13 0 -7 -17 9 -17 -6 0 -23 10 -12 9 -13 -7 -7 -14 5 -16 3 -9
-6 13 -16 15 -150 2 -143 -10 7 -1 -24 14 -42 12 -17 -5 -17 -23 0 -9 7 -8 4
1 -8 19 -23 30 -73 18 -80 -4 -3 -6 -14 -4 -25 2 -11 -1 -20 -7 -20 -5 0 -8 6
-5 14 3 7 0 19 -6 25 -11 11 -18 38 -19 79 0 12 -5 22 -10 22 -6 0 -6 6 1 14
8 10 9 16 1 21 -6 4 -10 12 -9 18 3 27 -2 37 -18 38 -10 0 -13 3 -8 5 17 7 5
84 -13 84 -13 0 -12 3 4 14 17 13 17 15 3 21 -11 4 -14 14 -11 32 4 19 2 24
-8 18 -8 -5 -11 -3 -8 6 3 8 0 23 -5 34 -14 26 -18 47 -7 40 4 -3 6 4 3 15 -3
11 -10 17 -17 13 -6 -3 -2 4 8 16 20 22 20 22 0 15 -17 -7 -18 -6 -5 10 11 13
11 16 1 14 -7 -2 -15 3 -18 11 -3 9 0 11 8 6 7 -4 6 2 -3 16 -21 31 -22 40 -5
50 10 7 9 9 -4 9 -13 0 -18 9 -19 33 -1 17 -1 36 0 41 1 5 -3 13 -10 17 -7 4
-14 15 -15 23 -1 9 1 14 5 11 4 -2 8 2 8 10 0 8 -5 13 -11 12 -6 -1 -10 12 -9
31 1 18 -2 30 -7 27 -4 -3 -6 5 -2 17 4 16 2 19 -9 13 -11 -7 -11 -5 1 10 12
15 12 17 1 10 -10 -6 -13 -4 -9 6 3 8 1 25 -5 39 -14 36 -18 52 -18 74 0 11
-5 29 -11 40 -11 20 -10 20 8 6 12 -9 9 -3 -6 14 -21 24 -22 28 -6 22 17 -6
17 -5 5 10 -8 10 -13 25 -11 36 2 10 -2 18 -8 18 -6 0 -8 5 -5 11 4 5 -1 19
-10 29 -12 14 -13 20 -4 26 7 4 10 3 5 -4 -3 -6 -2 -13 3 -16 5 -4 8 2 7 11
-2 9 -8 19 -14 21 -7 2 -12 8 -12 13 0 6 6 7 13 3 9 -6 9 -4 0 7 -7 7 -13 21
-13 32 0 10 -4 16 -8 13 -5 -3 -9 1 -9 9 0 8 4 12 9 9 4 -3 8 0 8 5 0 6 -4 11
-9 11 -5 0 -11 9 -14 20 -3 11 -1 18 4 14 5 -3 6 2 3 10 -3 9 -11 16 -16 16
-6 0 -5 6 2 15 10 12 10 15 0 15 -7 0 -10 7 -6 15 3 8 -2 21 -10 30 -12 11
-12 15 -2 15 8 0 9 3 3 8 -5 4 -16 18 -24 32 -13 23 -13 24 3 11 14 -12 16
-12 10 3 -7 19 -1 18 -96 21 l-76 2 0 -1273z m608 1256 c0 -5 -2 -10 -4 -10
-3 0 -8 5 -11 10 -3 6 -1 10 4 10 6 0 11 -4 11 -10z m80 6 c0 -2 -7 -7 -16
-10 -8 -3 -12 -2 -9 4 6 10 25 14 25 6z m-530 -2540 c0 -3 -4 -8 -10 -11 -5
-3 -10 -1 -10 4 0 6 5 11 10 11 6 0 10 -2 10 -4z"/>
<path d="M880 2585 c-6 -7 -4 -19 6 -33 14 -20 14 -23 -1 -28 -13 -6 -14 -8
-3 -15 11 -7 10 -11 -2 -19 -8 -5 -10 -10 -4 -10 7 0 14 -7 17 -14 4 -11 1
-13 -11 -9 -14 6 -15 4 -4 -9 10 -13 10 -17 0 -21 -10 -4 -10 -6 1 -6 11 -1
11 -4 0 -18 -12 -15 -12 -16 1 -8 13 8 13 7 1 -8 -12 -15 -11 -17 3 -17 9 0
16 -8 16 -17 0 -14 -2 -15 -9 -4 -5 8 -11 9 -15 3 -3 -6 -2 -14 4 -17 7 -4 7
-12 2 -18 -10 -14 -10 -47 1 -64 4 -6 3 -15 -3 -18 -8 -5 -7 -12 2 -23 10 -12
10 -14 1 -8 -7 4 -13 3 -13 -3 0 -5 6 -12 13 -14 9 -4 8 -8 -3 -16 -8 -6 -10
-11 -4 -11 7 0 14 -7 17 -14 4 -11 1 -13 -11 -9 -14 6 -15 4 -4 -9 10 -13 10
-17 0 -21 -10 -4 -10 -6 1 -6 11 -1 11 -4 0 -18 -12 -15 -12 -16 1 -8 13 8 13
7 1 -8 -12 -15 -11 -17 3 -17 9 0 16 -8 15 -17 0 -11 -3 -13 -6 -5 -2 6 -9 9
-14 6 -6 -4 -6 -11 1 -19 8 -10 8 -15 0 -20 -8 -5 -7 -11 2 -23 11 -13 11 -14
-1 -8 -9 6 -12 5 -9 -5 3 -8 12 -13 19 -11 8 1 5 -4 -5 -13 -14 -10 -15 -15
-6 -15 10 0 11 -3 3 -11 -9 -9 -8 -18 4 -36 14 -21 14 -23 0 -17 -16 6 -18
-11 -4 -33 4 -6 3 -14 -3 -18 -14 -9 -2 -27 13 -19 7 3 3 -2 -7 -10 -14 -11
-15 -16 -6 -16 10 0 11 -3 3 -11 -9 -9 -8 -18 4 -36 14 -21 14 -23 0 -17 -15
5 -19 -18 -5 -32 4 -3 3 -17 -2 -30 -8 -20 -6 -24 8 -24 14 0 14 -2 3 -9 -8
-5 -16 -17 -17 -25 -1 -9 2 -14 7 -10 5 3 9 1 9 -5 0 -5 -5 -13 -10 -16 -8 -5
-8 -11 -1 -19 7 -9 7 -16 -1 -24 -9 -9 -8 -12 5 -12 10 0 17 -7 16 -17 0 -11
-3 -13 -6 -5 -2 6 -9 9 -14 6 -6 -4 -6 -11 1 -19 8 -10 8 -15 0 -20 -8 -5 -7
-11 2 -23 10 -12 10 -14 1 -8 -7 4 -13 3 -13 -3 0 -5 6 -12 13 -14 9 -4 8 -8
-3 -16 -8 -6 -10 -11 -4 -11 7 0 14 -7 17 -14 4 -11 1 -13 -11 -9 -14 6 -15 4
-4 -9 10 -13 10 -17 0 -21 -10 -4 -10 -6 1 -6 11 -1 11 -4 0 -18 -12 -15 -12
-16 1 -8 13 8 13 7 1 -8 -12 -15 -11 -17 3 -17 9 0 16 -8 16 -17 0 -14 -2 -15
-9 -4 -5 8 -11 9 -15 3 -3 -6 -2 -13 4 -17 6 -4 7 -12 3 -18 -12 -19 -12 -38
-1 -31 6 4 5 -2 -1 -15 -10 -18 -9 -21 6 -21 15 0 15 -2 4 -9 -8 -5 -16 -17
-17 -25 -1 -9 2 -14 7 -10 5 3 9 1 9 -5 0 -5 -5 -13 -10 -16 -8 -5 -8 -11 0
-20 8 -10 8 -15 -1 -21 -9 -5 -7 -10 7 -15 17 -7 17 -8 1 -8 -10 -1 -15 -6
-12 -11 4 -6 12 -8 18 -4 7 3 3 -2 -7 -10 -14 -11 -15 -16 -6 -16 10 0 11 -3
3 -11 -9 -9 -8 -18 4 -36 14 -21 14 -23 0 -17 -16 6 -18 -11 -4 -33 4 -6 3
-14 -3 -18 -14 -9 -2 -27 13 -19 7 3 3 -2 -7 -10 -14 -11 -15 -16 -6 -16 10 0
11 -3 3 -11 -9 -9 -8 -18 4 -36 14 -21 14 -23 0 -17 -16 6 -18 -10 -5 -31 4
-6 3 -17 -2 -25 -5 -9 -5 -19 1 -26 7 -8 6 -14 -1 -19 -8 -5 -7 -11 2 -23 10
-12 10 -14 1 -8 -7 4 -13 3 -13 -3 0 -5 6 -12 13 -14 9 -4 8 -8 -3 -16 -8 -6
-10 -11 -4 -11 7 0 14 -7 17 -14 4 -11 1 -13 -11 -9 -14 6 -15 4 -4 -9 10 -13
10 -17 0 -21 -10 -4 -10 -6 1 -6 11 -1 11 -4 0 -18 -12 -15 -12 -16 1 -8 13 8
13 7 1 -8 -12 -15 -11 -17 3 -17 9 0 16 -8 16 -17 0 -14 -2 -15 -9 -4 -5 8
-11 9 -15 3 -3 -6 -2 -14 4 -17 7 -4 7 -12 2 -18 -10 -14 -10 -47 1 -64 4 -6
3 -15 -3 -18 -8 -5 -7 -12 2 -23 10 -12 10 -14 0 -8 -6 4 -12 3 -12 -3 0 -5 6
-12 13 -14 9 -4 8 -8 -3 -16 -8 -6 -10 -11 -4 -11 7 0 14 -7 17 -14 4 -11 1
-13 -11 -9 -14 6 -15 4 -4 -9 10 -13 10 -17 0 -21 -10 -4 -10 -6 1 -6 11 -1
11 -4 0 -18 -12 -15 -12 -16 1 -8 13 8 13 7 1 -8 -12 -15 -11 -17 5 -17 18 -1
18 -1 1 -11 -14 -8 -15 -14 -7 -24 8 -9 8 -15 0 -20 -6 -3 -8 -11 -4 -16 4 -6
11 -6 20 2 16 13 19 -2 3 -18 -8 -8 -7 -13 2 -18 8 -6 10 -4 4 5 -6 10 -4 12
9 7 10 -4 15 -3 11 3 -3 6 -2 10 4 10 5 0 12 -6 14 -12 3 -8 6 -6 6 5 1 9 5
17 11 17 5 0 6 -8 3 -18 -6 -15 -5 -15 10 -3 9 7 23 11 31 8 7 -3 24 2 37 11
l24 16 -19 -22 c-11 -12 -15 -22 -10 -22 5 0 18 12 28 27 11 14 13 23 6 18
-10 -6 -12 -1 -7 24 5 24 4 30 -6 25 -6 -4 -3 3 8 16 11 13 14 20 6 15 -11 -6
-12 1 -6 35 6 34 5 41 -6 35 -11 -6 -12 -5 -1 6 16 17 16 43 0 33 -9 -5 -9 -2
1 9 11 14 11 20 0 34 -12 14 -12 16 0 8 11 -6 13 -4 8 8 -3 9 -1 18 6 21 9 3
9 5 0 5 -7 1 -13 9 -13 19 0 10 6 24 13 31 10 11 9 13 -1 7 -9 -6 -11 2 -6 29
4 29 3 36 -8 30 -10 -6 -11 -5 0 6 14 15 17 43 3 35 -14 -9 -7 19 9 40 12 15
12 16 1 9 -11 -6 -13 -2 -8 24 5 24 4 30 -6 25 -6 -4 -3 3 8 16 11 13 14 20 6
15 -11 -7 -13 -2 -8 25 5 21 2 39 -5 48 -11 13 -11 14 1 7 11 -6 13 -4 8 8 -3
9 -1 18 6 21 9 3 9 5 0 5 -7 1 -13 10 -13 22 0 12 4 17 11 13 8 -4 8 -1 1 12
-8 17 -7 72 3 101 2 6 12 10 22 8 10 -2 22 -4 26 -4 5 -1 5 -6 1 -12 -3 -6 -9
-7 -13 -3 -10 15 -31 15 -31 0 0 -15 36 -16 60 -1 10 6 9 11 -5 22 -11 7 -14
13 -9 13 6 0 15 -5 22 -12 17 -17 54 -20 64 -6 6 10 8 10 8 1 0 -7 -12 -20
-27 -28 -16 -9 -21 -14 -11 -11 9 2 19 2 22 -2 11 -10 37 -11 30 -1 -3 5 -10
7 -15 4 -5 -4 -9 -2 -9 3 0 18 14 21 31 6 11 -10 19 -12 24 -5 6 11 5 12 -17
15 -6 0 -13 8 -15 16 -3 9 -1 11 4 5 4 -5 17 -12 27 -13 18 -3 18 -2 6 15 -12
15 -12 16 0 5 17 -14 34 -16 25 -2 -3 5 0 7 9 4 8 -3 12 -13 10 -22 -5 -15 -4
-14 6 1 9 14 15 15 33 7 19 -10 20 -9 6 2 -19 16 -17 39 6 70 12 15 15 17 11
5 -5 -15 -3 -16 14 -7 11 6 20 13 20 16 0 3 -4 3 -9 0 -5 -3 -12 1 -15 10 -3
8 -2 13 3 9 16 -9 37 5 38 28 2 17 0 19 -7 7 -5 -8 -10 -10 -10 -4 0 6 10 19
23 28 12 9 15 14 7 11 -12 -5 -12 -4 1 7 9 7 14 19 12 26 -3 6 1 12 8 12 7 0
5 6 -7 15 -15 12 -16 14 -2 9 13 -4 16 -1 13 15 -2 11 -1 20 3 20 20 -3 25 2
12 11 -13 9 -13 10 0 10 13 0 13 1 0 10 -13 8 -12 10 4 10 15 0 17 3 8 12 -8
8 -8 17 -1 30 5 10 7 24 3 31 -5 6 1 5 11 -3 17 -14 17 -14 7 5 -7 14 -7 26 0
39 8 15 8 17 -2 11 -8 -5 -7 1 3 15 11 16 13 28 6 41 -6 12 -5 20 2 25 8 4 7
9 -2 15 -11 7 -10 9 4 9 9 0 17 5 17 11 0 5 -4 8 -9 4 -6 -3 -9 3 -8 14 0 11
5 17 9 15 11 -7 10 4 -3 28 -8 15 -8 19 0 14 14 -9 14 0 0 26 -9 16 -8 19 2
13 9 -6 11 0 6 24 -4 18 -3 30 1 27 4 -2 7 7 7 20 0 13 -3 24 -6 24 -3 0 -6 7
-6 15 0 8 3 15 7 15 4 0 7 7 7 15 0 8 -3 15 -6 15 -10 0 -6 105 4 112 6 5 4 8
-5 8 -13 0 -13 1 0 10 11 7 11 10 2 10 -10 0 -10 5 -1 21 8 15 8 19 0 15 -7
-5 -10 1 -7 16 2 13 0 33 -5 45 -5 13 -5 22 -1 22 20 -3 21 3 6 26 -9 14 -13
25 -9 25 4 0 3 6 -4 13 -8 10 -7 17 1 25 8 8 8 12 1 12 -5 0 -9 12 -9 28 1 15
-3 36 -8 47 -5 11 -10 31 -11 45 -1 14 -5 31 -9 38 -4 7 -2 12 6 12 9 0 10 3
2 8 -6 4 -10 15 -8 25 1 10 -3 23 -10 30 -7 6 -11 19 -8 29 3 13 -1 18 -14 18
-16 0 -16 2 -4 10 12 8 12 10 -3 16 -9 3 -17 10 -17 16 0 5 5 6 11 2 6 -3 3 5
-6 20 -10 14 -14 26 -10 26 4 0 -7 13 -25 29 -20 17 -31 34 -27 43 3 8 1 21
-4 29 -5 8 -9 9 -9 3 0 -7 -15 -11 -34 -11 -19 1 -34 6 -33 12 1 5 -4 9 -10 8
-7 -2 -13 1 -13 6 0 6 9 9 19 8 11 0 17 -5 15 -9 -3 -4 3 -5 13 -2 15 5 15 4
3 -5 -12 -8 -11 -10 8 -8 28 2 28 11 0 24 -33 15 -436 13 -448 -2z m17 -10 c0
-8 -4 -12 -9 -9 -5 3 -6 10 -3 15 9 13 12 11 12 -6z m213 11 c0 -2 -7 -7 -16
-10 -8 -3 -12 -2 -9 4 6 10 25 14 25 6z m60 0 c0 -2 -7 -7 -16 -10 -8 -3 -12
-2 -9 4 6 10 25 14 25 6z m-165 -15 c3 -5 2 -12 -3 -15 -5 -3 -9 1 -9 9 0 17
3 19 12 6z m-107 -306 c-3 -3 -9 2 -12 12 -6 14 -5 15 5 6 7 -7 10 -15 7 -18z
m276 -95 c9 0 16 5 16 10 0 6 4 10 8 10 5 0 9 -7 9 -15 0 -8 -4 -12 -9 -9 -4
3 -8 0 -8 -6 0 -6 6 -10 13 -9 25 3 38 -1 32 -11 -10 -16 1 -11 16 7 8 9 9 14
4 11 -6 -4 -17 -2 -25 3 -11 7 -9 8 9 6 18 -3 26 -11 28 -30 2 -17 -1 -27 -9
-27 -9 0 -9 -3 2 -9 8 -6 18 -7 24 -4 5 4 7 -1 3 -10 -4 -11 -2 -14 9 -10 10
4 12 0 7 -13 -5 -13 -3 -15 7 -9 10 6 12 4 7 -8 -4 -10 -1 -17 6 -17 8 0 6 -4
-3 -10 -8 -5 -10 -10 -5 -10 6 0 12 -12 13 -27 1 -15 6 -31 12 -37 6 -6 6 -14
-1 -23 -8 -9 -8 -13 0 -13 6 0 11 -5 11 -11 0 -5 -4 -8 -8 -5 -5 3 -9 -1 -9
-9 0 -8 4 -12 9 -9 4 3 8 0 8 -5 0 -6 -6 -11 -12 -12 -7 0 -4 -4 7 -9 11 -5
15 -9 8 -9 -7 -1 -10 -7 -7 -14 3 -8 6 -46 7 -85 2 -58 -1 -72 -13 -72 -11 0
-12 -2 -3 -8 14 -9 10 -47 -8 -69 -7 -8 -8 -13 -3 -11 5 2 9 -1 9 -7 0 -5 -4
-9 -9 -7 -5 2 -4 -4 4 -12 10 -13 10 -16 -1 -16 -8 0 -5 -6 7 -15 13 -11 14
-13 3 -9 -13 4 -16 -1 -14 -20 2 -14 -1 -26 -7 -26 -5 0 -6 -9 -3 -21 5 -14 3
-19 -3 -15 -6 3 -13 2 -17 -4 -3 -5 -2 -10 3 -10 5 0 9 -7 9 -15 0 -10 -6 -14
-15 -10 -12 4 -13 3 -2 -10 11 -13 10 -14 -3 -9 -13 4 -15 1 -12 -17 l4 -22
-23 22 c-17 16 -23 18 -23 7 0 -8 4 -13 8 -10 4 2 10 0 13 -5 8 -12 -4 -41
-16 -41 -7 0 -6 5 1 13 8 10 7 14 -4 14 -7 0 -14 -3 -13 -6 2 -22 -5 -31 -23
-31 -13 0 -18 -4 -13 -12 4 -7 3 -8 -5 -4 -9 6 -9 11 0 22 6 7 15 12 18 9 4
-2 8 2 8 10 0 9 -11 5 -34 -12 -18 -14 -33 -21 -33 -15 0 6 8 16 18 21 9 6 12
11 5 11 -6 0 -15 -5 -19 -11 -4 -8 -9 -7 -16 2 -8 11 -9 10 -4 -3 3 -12 0 -18
-9 -18 -8 0 -14 5 -12 12 1 7 -7 12 -18 13 -18 0 -20 6 -18 53 1 37 -2 50 -10
46 -8 -5 -8 -2 1 7 14 15 17 43 3 35 -14 -9 -7 19 9 40 12 15 12 16 1 9 -11
-6 -13 -2 -8 24 5 24 4 30 -6 25 -6 -4 -3 3 8 16 11 13 14 20 6 15 -11 -7 -13
-2 -8 25 5 21 2 39 -5 48 -11 13 -11 14 1 7 11 -6 13 -4 8 8 -4 10 -1 17 6 18
9 0 9 2 0 6 -7 2 -13 12 -13 22 0 9 6 23 13 30 10 11 9 12 -1 7 -9 -6 -11 0
-8 20 3 15 0 35 -7 43 -10 12 -9 13 2 6 11 -6 13 -4 8 8 -4 10 -1 17 6 18 9 0
9 2 0 6 -7 2 -13 12 -13 22 0 9 6 23 13 30 10 11 9 12 -2 6 -11 -6 -13 -4 -8
8 3 9 2 19 -4 23 -6 4 -3 14 8 27 10 11 12 17 4 12 -11 -7 -13 -2 -8 24 5 24
4 30 -6 25 -6 -4 -3 3 8 16 11 13 14 20 7 16 -9 -5 -12 1 -10 23 1 17 6 31 11
31 5 0 4 6 -2 14 -10 11 -8 17 6 25 13 7 14 10 4 11 -8 0 -11 3 -8 7 4 3 17
-2 29 -13 12 -10 18 -13 14 -6 -4 6 -2 12 3 12 6 0 11 -6 11 -13 0 -8 6 -14
14 -14 12 0 12 4 -1 26 -12 21 -12 23 0 9 8 -10 22 -18 31 -18z m361 -170 c3
-6 -1 -7 -9 -4 -18 7 -21 14 -7 14 6 0 13 -4 16 -10z m-440 -690 c-3 -5 -12
-10 -18 -10 -7 0 -6 4 3 10 19 12 23 12 15 0z m235 -390 c0 -5 -2 -10 -4 -10
-3 0 -8 5 -11 10 -3 6 -1 10 4 10 6 0 11 -4 11 -10z m-432 -575 c-3 -3 -9 2
-12 12 -6 14 -5 15 5 6 7 -7 10 -15 7 -18z"/>
<path d="M1082 2161 c-11 -7 -11 -9 0 -14 9 -3 15 1 15 9 0 8 -1 14 -1 14 -1
0 -7 -4 -14 -9z"/>
<path d="M1666 2583 c-8 -19 -8 -24 2 -20 4 1 8 -2 9 -8 0 -5 -3 -9 -8 -7 -5
1 -9 -1 -10 -5 -5 -40 -5 -61 2 -57 4 2 7 -5 6 -16 -1 -11 -5 -20 -10 -20 -5
0 -3 -8 4 -17 8 -9 9 -14 4 -11 -6 4 -11 -6 -11 -23 -1 -16 3 -29 8 -29 5 0 6
-6 1 -12 -11 -19 -13 -39 -1 -32 12 8 6 -28 -7 -39 -6 -6 -6 -10 3 -14 6 -2
12 -9 12 -14 0 -6 -3 -8 -8 -6 -4 3 -7 -8 -7 -23 -1 -16 2 -27 5 -25 3 2 6
-14 6 -35 0 -21 -3 -37 -6 -35 -4 3 -6 -9 -4 -25 2 -19 -1 -30 -9 -30 -8 0 -7
-3 3 -9 8 -6 19 -7 25 -4 5 4 1 -3 -9 -15 -11 -12 -14 -22 -8 -22 7 0 12 -5
12 -11 0 -5 -3 -8 -8 -6 -4 3 -7 -8 -7 -23 -1 -16 2 -27 5 -25 3 2 6 -14 6
-35 0 -21 -3 -37 -6 -35 -4 3 -6 -9 -4 -25 2 -19 -1 -30 -9 -30 -8 0 -7 -3 3
-9 8 -6 19 -7 25 -4 5 4 1 -3 -9 -15 -11 -12 -14 -22 -8 -22 7 0 12 -5 12 -11
0 -5 -3 -8 -8 -6 -4 3 -7 -8 -7 -23 -1 -16 2 -27 5 -25 3 2 6 -14 6 -35 0 -21
-2 -37 -5 -35 -3 1 -6 -17 -7 -41 -1 -24 3 -44 8 -44 5 0 6 -6 1 -12 -11 -18
-13 -39 -3 -33 5 3 8 -4 7 -15 -1 -11 -5 -20 -10 -20 -5 0 -3 -8 4 -17 8 -9 9
-14 4 -11 -6 4 -11 -6 -11 -23 -1 -16 3 -29 8 -29 5 0 6 -6 1 -12 -11 -18 -13
-39 -3 -33 5 3 8 -4 7 -15 -1 -11 -5 -20 -10 -20 -5 0 -3 -8 4 -17 8 -9 9 -14
4 -11 -6 4 -11 -6 -11 -23 -1 -16 3 -29 8 -29 5 0 6 -6 1 -12 -11 -18 -13 -39
-3 -33 5 3 8 -4 7 -15 -1 -11 -5 -20 -10 -20 -5 0 -3 -8 4 -17 8 -9 9 -14 4
-11 -6 4 -11 -6 -11 -23 -1 -16 3 -29 8 -29 5 0 6 -6 1 -12 -11 -19 -13 -39
-1 -32 12 8 6 -28 -7 -39 -6 -6 -6 -10 3 -14 6 -2 12 -9 12 -14 0 -6 -3 -8 -8
-6 -4 3 -7 -8 -7 -23 -1 -16 2 -27 5 -25 3 2 6 -14 6 -35 0 -21 -3 -37 -6 -35
-4 3 -6 -9 -4 -25 2 -19 -1 -30 -9 -30 -8 0 -7 -3 3 -9 8 -6 19 -7 25 -4 5 4
1 -3 -9 -15 -11 -12 -14 -22 -8 -22 7 0 12 -5 12 -11 0 -5 -3 -8 -8 -6 -4 3
-7 -8 -7 -23 -1 -16 2 -27 5 -25 3 2 6 -14 6 -35 0 -21 -3 -37 -6 -35 -4 3 -6
-9 -4 -25 2 -19 -1 -30 -9 -30 -8 0 -7 -3 3 -9 8 -6 19 -7 25 -4 5 4 1 -3 -9
-15 -11 -12 -14 -22 -8 -22 7 0 12 -5 12 -11 0 -5 -3 -8 -8 -6 -4 3 -7 -8 -7
-23 -1 -16 2 -27 5 -25 3 2 6 -14 6 -35 0 -21 -2 -37 -5 -35 -3 1 -6 -17 -7
-41 -1 -24 3 -44 8 -44 5 0 6 -6 1 -13 -11 -17 -13 -38 -3 -32 5 3 8 -4 7 -15
-1 -11 -5 -20 -10 -20 -5 0 -3 -8 4 -17 8 -9 9 -14 4 -11 -6 4 -11 -6 -11 -23
-1 -16 3 -29 8 -29 5 0 6 -6 1 -12 -4 -7 -9 -22 -10 -33 -3 -17 -1 -18 8 -5 9
12 10 11 6 -7 -4 -17 -1 -20 12 -15 14 5 14 3 3 -10 -10 -13 -10 -18 -1 -24 7
-4 9 -3 5 4 -4 7 5 10 29 8 19 -2 33 0 30 4 -8 13 18 18 38 8 10 -5 14 -14 11
-20 -4 -7 -3 -8 5 -4 6 4 8 12 5 18 -5 7 -1 9 9 5 13 -5 17 -1 18 16 1 12 1
26 0 31 -1 5 6 3 15 -5 16 -13 16 -12 5 9 -6 12 -9 27 -6 33 4 5 1 17 -7 26
-9 12 -9 15 0 9 6 -4 12 -3 12 3 0 5 -5 13 -12 17 -7 5 -5 11 7 21 18 13 18
13 0 13 -18 0 -18 0 0 13 14 11 15 16 5 22 -9 6 -11 4 -5 -5 5 -9 4 -11 -3 -6
-9 5 -9 13 -2 26 7 13 6 20 -3 23 -9 4 -9 6 1 6 10 1 10 6 1 23 -12 22 -11 22
6 8 17 -14 17 -14 7 7 -7 12 -9 29 -6 37 4 10 1 16 -7 16 -11 0 -11 3 1 10 12
8 13 11 1 19 -11 7 -11 9 0 14 12 4 11 7 -1 16 -12 8 -12 11 -1 11 7 0 11 6 8
14 -3 7 0 19 6 25 9 9 7 10 -8 5 -17 -7 -18 -6 -7 8 10 13 10 17 0 21 -11 4
-11 6 0 6 10 1 10 6 1 24 -12 21 -11 21 6 7 17 -14 18 -14 6 8 -6 12 -9 27 -6
33 4 5 1 17 -7 26 -9 12 -9 15 0 9 6 -4 12 -3 12 3 0 5 -5 13 -12 17 -7 5 -5
11 7 21 18 13 18 13 0 13 -18 0 -18 0 0 13 14 11 15 16 5 22 -9 6 -11 4 -5 -5
5 -9 4 -11 -3 -6 -9 5 -9 13 -2 27 8 14 7 19 -2 19 -8 0 -7 4 4 10 13 8 15 16
8 41 -7 23 -6 30 3 26 8 -3 14 6 15 25 2 21 -1 27 -10 22 -7 -4 -10 -3 -5 1 4
5 16 9 27 10 14 1 17 -2 9 -11 -7 -8 -5 -17 6 -28 23 -23 32 -20 10 4 -10 11
-13 20 -7 20 6 0 13 -4 17 -10 3 -5 13 -6 23 -3 15 6 15 5 3 -10 -9 -11 -10
-17 -2 -17 6 0 11 6 11 13 0 8 4 7 10 -3 5 -8 10 -10 10 -4 0 6 -7 17 -15 24
-8 7 -15 18 -14 24 0 7 2 6 6 -1 2 -7 9 -13 15 -13 6 0 17 -8 24 -18 13 -16
14 -16 20 5 4 14 11 20 22 16 9 -4 13 -2 9 4 -8 13 26 13 35 -1 4 -6 11 -1 17
14 6 17 10 19 10 8 1 -22 17 -32 27 -17 4 7 3 9 -4 5 -6 -4 -10 1 -9 13 1 14
5 17 13 11 16 -14 26 0 12 17 -9 11 -8 13 2 11 7 -2 15 3 18 11 3 9 0 11 -8 6
-9 -6 -11 -4 -5 4 4 8 18 11 33 8 25 -5 25 -4 7 9 -16 12 -16 14 -2 14 11 0
14 5 10 17 -4 11 -3 14 5 9 7 -4 12 -3 12 3 0 5 -6 12 -12 14 -8 3 -6 6 5 6 9
1 17 6 17 12 0 5 6 7 13 4 6 -4 3 1 -7 9 -17 14 -17 16 -3 16 11 0 14 5 10 17
-5 12 -3 14 8 8 12 -7 12 -6 1 7 -10 13 -10 18 -1 24 8 5 9 3 4 -6 -5 -9 -4
-11 3 -6 8 5 8 15 1 33 -8 22 -7 24 4 14 12 -9 14 -6 12 19 -1 16 1 30 6 30 5
0 9 5 9 11 0 5 -4 7 -10 4 -5 -3 -10 -1 -10 4 0 6 8 11 18 11 14 0 15 2 2 10
-12 8 -12 10 -1 10 10 0 11 3 2 14 -9 11 -9 16 0 22 8 5 9 3 4 -6 -5 -9 -4
-11 3 -6 9 5 9 13 2 27 -6 10 -7 19 -2 19 4 0 7 14 6 30 -1 17 3 30 9 30 7 0
5 5 -3 10 -13 9 -13 10 0 10 13 0 13 1 0 10 -12 8 -12 10 3 16 14 5 15 9 6 20
-8 10 -8 18 -1 27 7 8 7 18 2 27 -5 8 -5 21 -1 29 4 9 7 51 7 94 -1 45 3 77 9
77 7 0 6 3 0 8 -6 4 -12 58 -13 122 -2 63 -4 127 -4 142 -1 15 -4 25 -8 23 -4
-2 -7 2 -7 10 0 8 4 12 8 10 13 -9 4 30 -11 43 -13 12 -13 13 4 8 17 -6 17 -5
5 10 -8 10 -13 25 -11 35 2 9 -2 20 -8 24 -8 5 -7 11 2 23 10 12 10 14 1 8 -7
-4 -13 -2 -13 3 0 6 5 11 12 11 6 0 1 9 -12 20 -14 12 -18 20 -10 20 11 0 11
3 2 12 -7 7 -8 16 -2 23 6 8 3 19 -10 33 -14 14 -16 22 -7 25 9 4 9 6 0 6 -7
1 -13 13 -13 29 0 22 -2 24 -11 12 -8 -12 -9 -7 -6 18 2 17 0 32 -5 32 -5 0
-6 5 -3 10 3 6 1 10 -5 10 -6 0 -8 4 -5 10 3 5 0 7 -8 4 -8 -3 -20 3 -28 12
-9 12 -10 15 -1 10 6 -4 12 -2 12 3 0 6 -5 11 -11 11 -6 0 -9 10 -7 23 5 25
-13 30 -41 12 -11 -6 -13 -4 -8 8 9 24 -17 30 -146 33 -90 3 -116 0 -110 -9 5
-9 3 -9 -8 -1 -22 18 -166 16 -173 -3z m104 3 c0 -3 -4 -8 -10 -11 -5 -3 -10
-1 -10 4 0 6 5 11 10 11 6 0 10 -2 10 -4z m120 0 c0 -2 -7 -7 -16 -10 -8 -3
-12 -2 -9 4 6 10 25 14 25 6z m195 -6 c3 -5 1 -10 -4 -10 -6 0 -11 5 -11 10 0
6 2 10 4 10 3 0 8 -4 11 -10z m105 -114 c0 -3 -4 -8 -10 -11 -5 -3 -10 -1 -10
4 0 6 5 11 10 11 6 0 10 -2 10 -4z m-515 -65 c3 -5 2 -12 -3 -15 -5 -3 -9 1
-9 9 0 17 3 19 12 6z m285 -220 c0 8 3 10 8 4 7 -10 14 -12 56 -21 10 -2 21
-6 25 -10 3 -4 -3 -4 -14 0 -17 5 -16 3 4 -12 15 -13 21 -24 16 -32 -5 -9 -4
-11 3 -6 8 5 12 -1 12 -14 0 -14 4 -19 13 -14 7 5 6 0 -3 -11 -9 -11 -10 -16
-2 -11 8 5 12 -1 12 -19 0 -16 4 -24 11 -19 8 4 8 0 0 -15 -7 -11 -8 -21 -2
-21 5 0 12 -7 15 -16 4 -10 2 -13 -7 -8 -8 5 -7 2 2 -9 11 -14 11 -17 0 -17
-12 0 -11 -2 0 -9 8 -5 16 -19 18 -32 3 -19 1 -20 -14 -8 -17 13 -17 13 -3 -5
18 -22 24 -233 7 -253 -6 -9 -6 -13 2 -13 6 0 11 -5 11 -11 0 -5 -6 -7 -12 -3
-10 6 -10 4 0 -8 9 -12 10 -18 2 -23 -6 -4 -9 -14 -6 -22 5 -11 2 -13 -9 -9
-11 4 -14 2 -8 -7 12 -19 11 -30 -5 -56 -9 -15 -10 -21 -2 -16 18 11 1 -37
-19 -52 -14 -12 -14 -12 4 -7 18 5 18 4 3 -6 -10 -6 -18 -18 -18 -25 0 -8 -3
-14 -7 -14 -19 3 -33 -2 -33 -11 0 -5 8 -7 18 -4 13 5 14 4 3 -4 -7 -5 -11
-14 -8 -19 3 -5 0 -10 -7 -10 -8 0 -12 6 -9 13 5 14 -22 13 -34 -1 -4 -4 -2
-5 4 -1 8 5 11 2 7 -7 -2 -7 -11 -14 -19 -14 -8 0 -13 3 -11 6 2 3 -3 13 -12
21 -14 13 -15 12 -9 -3 3 -9 5 -17 3 -17 -3 0 -11 -3 -20 -6 -9 -3 -16 -1 -16
6 0 6 4 8 10 5 6 -3 7 1 3 10 -4 12 -8 13 -13 5 -6 -10 -13 -9 -30 3 -12 8
-30 13 -39 9 -14 -5 -14 -4 -1 13 11 14 12 19 2 22 -6 3 -9 9 -6 14 3 6 12 5
22 -3 14 -11 14 -9 -1 8 -9 11 -14 24 -11 27 4 4 1 14 -7 24 -9 11 -10 14 -1
9 6 -4 12 -3 12 3 0 5 -5 13 -12 17 -7 5 -5 11 7 21 18 13 18 13 0 13 -18 0
-18 0 0 13 14 11 15 16 5 22 -9 6 -11 4 -5 -5 5 -9 4 -11 -3 -6 -9 5 -9 13 -2
27 8 14 7 19 -2 20 -10 0 -10 2 -1 6 10 3 10 10 1 26 -10 21 -10 21 7 7 17
-14 17 -14 7 7 -7 12 -9 29 -6 37 4 10 1 16 -7 16 -11 0 -11 3 1 11 12 9 13
12 1 16 -11 5 -11 7 0 14 12 8 11 11 -1 19 -12 7 -12 10 -1 10 7 0 11 6 8 14
-3 7 0 19 6 25 9 9 7 10 -8 5 -18 -7 -18 -6 -6 9 11 14 11 17 0 18 -10 0 -11
2 -2 6 10 3 10 10 1 26 -10 21 -10 21 7 7 17 -14 18 -14 6 8 -6 12 -9 27 -6
33 4 5 1 17 -7 26 -9 12 -9 15 0 9 6 -4 12 -3 12 3 0 5 -5 13 -12 17 -7 5 -5
11 7 21 18 13 18 13 0 13 -18 0 -18 0 0 13 14 11 15 16 5 22 -9 6 -11 4 -5 -5
5 -9 4 -11 -3 -6 -9 5 -9 13 -2 27 8 14 7 19 -2 20 -10 0 -10 2 -1 6 10 3 10
10 1 26 -11 21 -10 21 7 7 15 -12 17 -12 10 -1 -5 8 -9 33 -11 55 -1 23 0 35
3 28 3 -6 10 -9 16 -5 7 4 7 1 -1 -9 -9 -11 -10 -18 -2 -23 6 -4 9 -1 8 7 -2
7 2 12 9 11 7 -2 10 3 7 11 -3 8 0 17 7 22 7 4 10 3 6 -3 -4 -6 0 -14 9 -17 8
-3 12 -2 9 4 -3 6 -1 10 4 10 6 0 11 -6 11 -13 0 -7 15 -12 41 -13 22 -1 35 2
28 7 -7 4 -21 6 -31 4 -11 -2 -22 5 -29 18 -10 21 -10 21 5 3 12 -14 16 -16
16 -5z m-285 -580 c3 -5 2 -12 -3 -15 -5 -3 -9 1 -9 9 0 17 3 19 12 6z m0
-160 c3 -5 2 -12 -3 -15 -5 -3 -9 1 -9 9 0 17 3 19 12 6z m219 -139 c3 -5 -1
-9 -9 -9 -8 0 -17 7 -19 14 -3 8 -11 11 -17 7 -8 -4 -9 -3 -5 4 7 12 39 2 50
-16z m-219 -21 c3 -5 2 -12 -3 -15 -5 -3 -9 1 -9 9 0 17 3 19 12 6z m0 -160
c3 -5 2 -12 -3 -15 -5 -3 -9 1 -9 9 0 17 3 19 12 6z m322 -233 c2 -17 0 -19
-7 -8 -5 8 -6 18 -4 22 8 12 10 10 11 -14z m-322 -567 c3 -5 2 -12 -3 -15 -5
-3 -9 1 -9 9 0 17 3 19 12 6z m0 -160 c3 -5 2 -12 -3 -15 -5 -3 -9 1 -9 9 0
17 3 19 12 6z m52 -104 c0 -8 -6 -14 -13 -14 -7 0 -10 6 -7 14 3 7 8 13 12 13
4 0 8 -6 8 -13z"/>
<path d="M2035 1380 c-3 -5 -1 -10 4 -10 6 0 11 5 11 10 0 6 -2 10 -4 10 -3 0
-8 -4 -11 -10z"/>
<path d="M1385 2530 c-8 -13 3 -30 18 -30 8 0 7 3 -2 9 -7 5 -10 14 -7 20 4 6
5 11 2 11 -3 0 -8 -4 -11 -10z"/>
<path d="M1643 2165 c0 -8 4 -12 9 -9 5 3 6 10 3 15 -9 13 -12 11 -12 -6z"/>
<path d="M296 2027 c3 -10 9 -15 12 -12 3 3 0 11 -7 18 -10 9 -11 8 -5 -6z"/>
<path d="M1643 1925 c0 -8 4 -12 9 -9 5 3 6 10 3 15 -9 13 -12 11 -12 -6z"/>
<path d="M1643 1685 c0 -8 4 -12 9 -9 5 3 6 10 3 15 -9 13 -12 11 -12 -6z"/>
<path d="M517 1109 c7 -7 15 -10 18 -7 3 3 -2 9 -12 12 -14 6 -15 5 -6 -5z"/>
<path d="M527 1076 c-3 -8 -2 -18 3 -21 13 -8 20 9 11 24 -6 10 -10 9 -14 -3z"/>
<path d="M1356 945 c-3 -8 0 -17 6 -21 6 -4 8 -3 4 4 -3 5 -1 12 6 14 8 3 9 6
1 11 -6 4 -13 0 -17 -8z"/>
<path d="M1643 885 c0 -8 4 -12 9 -9 5 3 6 10 3 15 -9 13 -12 11 -12 -6z"/>
<path d="M2036 885 c-16 -12 -17 -15 -4 -15 9 0 18 7 22 15 7 18 6 18 -18 0z"/>
<path d="M1142 874 c-7 -8 -8 -14 -3 -14 10 0 25 19 20 25 -2 1 -10 -3 -17
-11z"/>
<path d="M1079 843 c-13 -16 -12 -17 4 -4 9 7 17 15 17 17 0 8 -8 3 -21 -13z"/>
<path d="M2011 848 c-1 -20 14 -24 25 -6 4 6 3 8 -4 4 -5 -3 -13 0 -15 6 -3 8
-6 6 -6 -4z"/>
<path d="M1643 645 c0 -8 4 -12 9 -9 5 3 6 10 3 15 -9 13 -12 11 -12 -6z"/>
<path d="M2469 607 c-14 -13 -23 -29 -21 -36 3 -8 0 -11 -7 -7 -6 4 -11 3 -11
-3 0 -5 6 -12 13 -14 7 -4 6 -6 -4 -6 -9 -1 -19 -10 -22 -21 -3 -11 -2 -18 2
-16 4 3 8 -4 8 -15 1 -11 -4 -22 -11 -25 -8 -3 -12 -14 -8 -26 4 -16 2 -19 -9
-13 -11 6 -11 5 -2 -5 9 -9 9 -19 2 -33 -9 -15 -8 -18 3 -11 11 6 11 5 0 -8
-9 -12 -10 -18 -2 -23 8 -5 8 -10 0 -20 -8 -9 -8 -15 0 -20 6 -3 7 -12 3 -18
-11 -18 -11 -67 0 -60 6 4 8 -1 4 -10 -4 -10 -1 -17 6 -18 7 0 3 -4 -8 -9
l-20 -9 20 0 c16 -1 17 -3 5 -11 -12 -7 -11 -10 5 -16 18 -7 18 -8 -1 -15 -17
-7 -17 -8 -1 -8 10 -1 15 -6 12 -11 -3 -5 -1 -10 5 -10 6 0 8 -5 5 -10 -4 -6
-12 -8 -18 -4 -7 3 -2 -4 11 -15 13 -11 24 -29 25 -40 0 -11 5 -17 9 -15 4 3
8 0 8 -6 0 -7 6 -10 14 -7 7 3 19 0 26 -6 7 -7 10 -8 8 -2 -5 9 22 44 29 38
10 -9 15 -1 6 8 -13 13 -6 39 9 39 7 0 6 -5 -1 -13 -8 -10 -7 -14 3 -14 8 0
13 7 11 16 -1 9 0 20 3 26 10 16 9 44 -1 38 -5 -3 -4 4 2 16 7 12 9 26 6 31
-3 6 -1 10 5 10 6 0 8 5 3 12 -10 18 -13 39 -3 33 4 -2 7 27 7 65 0 48 -3 67
-11 63 -6 -4 -5 1 3 10 11 14 11 17 0 17 -9 0 -10 3 -4 8 13 9 19 35 6 28 -5
-4 -9 8 -8 26 1 22 -5 39 -18 50 -12 10 -15 17 -7 18 6 0 12 -5 12 -12 0 -6 3
-8 6 -5 4 4 2 13 -4 20 -7 8 -9 17 -5 21 4 4 0 4 -8 1 -13 -5 -15 1 -12 27 3
27 1 29 -6 13 -7 -15 -10 -16 -11 -5 -2 8 -2 18 -1 23 0 4 -4 7 -10 7 -6 0 -9
-6 -6 -14 3 -8 0 -19 -7 -25 -11 -9 -13 -5 -11 19 1 16 2 30 1 30 0 0 -13 -11
-27 -23z m9 -17 c-7 -10 -14 -17 -17 -15 -4 4 18 35 25 35 2 0 -1 -9 -8 -20z
m9 -545 c0 -17 -13 -20 -21 -6 -4 5 0 12 6 14 7 3 13 6 14 6 0 1 1 -6 1 -14z
m28 -4 c3 -5 2 -12 -3 -15 -5 -3 -9 1 -9 9 0 17 3 19 12 6z"/>
<path d="M2405 480 c-3 -5 -1 -10 4 -10 6 0 11 5 11 10 0 6 -2 10 -4 10 -3 0
-8 -4 -11 -10z"/>
<path d="M1643 405 c0 -8 4 -12 9 -9 5 3 6 10 3 15 -9 13 -12 11 -12 -6z"/>
<path d="M1760 41 c0 -6 4 -13 10 -16 6 -3 7 1 4 9 -7 18 -14 21 -14 7z"/>
</g>
</svg>
